<svg xmlns="http://www.w3.org/2000/svg" width="32" height="32" viewBox="0 0 32 32">
<defs>
<linearGradient id="top" gradientUnits="userSpaceOnUse" x1="0" y1="0" x2="0" y2="8"><stop stop-color="#f8db86"/><stop offset=".12" stop-color="#fff0ae"/><stop offset=".26" stop-color="#dca53b"/><stop offset=".65" stop-color="#e8bb56"/><stop offset="1" stop-color="#dca53b"/></linearGradient>
<linearGradient id="left" gradientUnits="userSpaceOnUse" x1="0" y1="0" x2="8" y2="0"><stop stop-color="#f8db86"/><stop offset=".12" stop-color="#fff0ae"/><stop offset=".26" stop-color="#dca53b"/><stop offset=".65" stop-color="#e8bb56"/><stop offset="1" stop-color="#dca53b"/></linearGradient>
<radialGradient id="body" gradientUnits="userSpaceOnUse" cx="24" cy="24" r="24"><stop stop-color="#a96916"/><stop offset=".38" stop-color="#e8b548"/><stop offset=".66" stop-color="#efc760"/><stop offset=".8" stop-color="#dca53b"/><stop offset=".96" stop-color="#fff0ae"/><stop offset="1" stop-color="#f8db86"/></radialGradient>
<radialGradient id="rim" cx=".3" cy=".22" r=".8"><stop stop-color="#fff3ad"/><stop offset=".5" stop-color="#d79c31"/><stop offset=".78" stop-color="#835011"/><stop offset="1" stop-color="#f1c960"/></radialGradient>
<radialGradient id="bolt" cx=".32" cy=".24" r=".75"><stop stop-color="#fffde1"/><stop offset=".18" stop-color="#fff3a3"/><stop offset=".45" stop-color="#efc24d"/><stop offset=".73" stop-color="#c2831f"/><stop offset="1" stop-color="#855014"/></radialGradient>
<linearGradient id="fadeTop" gradientUnits="userSpaceOnUse" x1="16" y1="0" x2="28" y2="0"><stop stop-color="black"/><stop offset="1" stop-color="white"/></linearGradient>
<linearGradient id="fadeLeft" gradientUnits="userSpaceOnUse" x1="0" y1="16" x2="0" y2="28"><stop stop-color="black"/><stop offset="1" stop-color="white"/></linearGradient>
<mask id="topBlend"><path d="M16 0H32V8H16Z" fill="url(#fadeTop)"/></mask>
<mask id="leftBlend"><path d="M0 16H8V32H0Z" fill="url(#fadeLeft)"/></mask>
<path id="shape" d="M32 0H24C10.75 0 0 10.75 0 24V32H8V26C8 23 9 22 12 21.5C17.5 20.6 20.6 17.5 21.5 12C22 9 23 8 26 8H32Z"/>
<clipPath id="clip"><use href="#shape"/></clipPath>
</defs>
<use href="#shape" fill="url(#body)"/>
<g clip-path="url(#clip)">
<path d="M32 .65H24C11.1 .65 .65 11.1 .65 24V32" fill="none" stroke="#b57822" stroke-width=".7"/>
<path d="M32 1.55H24C11.6 1.55 1.55 11.6 1.55 24V32" fill="none" stroke="#fff0a5" stroke-width=".65"/>
<path d="M32 7.25H26C22.6 7.25 21.25 8.7 20.75 11.9C19.9 17 17 19.9 11.9 20.75C8.7 21.25 7.25 22.6 7.25 26V32" fill="none" stroke="#9f6319" stroke-width="1.1"/>
<path d="M32 6.45H26C22 6.45 20.45 8.25 19.95 11.8C19.1 16.6 16.6 19.1 11.8 19.95C8.25 20.45 6.45 22 6.45 26V32" fill="none" stroke="#f6ce70" stroke-width=".65"/>
<path d="M16 0H32V8H16Z" fill="url(#top)" mask="url(#topBlend)"/>
<path d="M0 16H8V32H0Z" fill="url(#left)" mask="url(#leftBlend)"/>
</g>
<g transform="translate(1 1)">
<circle cx="11.7" cy="11.7" r="5.6" fill="url(#rim)" stroke="#a26c20" stroke-width=".25"/>
<circle cx="11.7" cy="11.7" r="4.6" fill="url(#bolt)" stroke="#815016" stroke-width=".3"/>
<path d="M8.1 11.5A3.4 3.4 0 0 1 11.5 8.1" fill="none" stroke="#fff5bd" stroke-width=".4" stroke-linecap="round"/>
</g>
</svg>
